<?xml version="1.0" encoding="UTF-8"?>
<!DOCTYPE svg PUBLIC "-//W3C//DTD SVG 1.1//EN" "http://www.w3.org/Graphics/SVG/1.1/DTD/svg11.dtd">
<!-- Creator: CorelDRAW X7 -->
<svg xmlns="http://www.w3.org/2000/svg" xml:space="preserve" width="160px" height="160px" version="1.1" style="shape-rendering:geometricPrecision; text-rendering:geometricPrecision; image-rendering:optimizeQuality; fill-rule:evenodd; clip-rule:evenodd"
viewBox="0 0 160 160"
 xmlns:xlink="http://www.w3.org/1999/xlink">
 <defs>
  <style type="text/css">
   <![CDATA[
    .fil0 {fill:none}
    .fil1 {fill:#000024}
    .fil4 {fill:#00FF44}
    .fil2 {fill:#33FF00}
    .fil3 {fill:#7BFF00}
    .fil5 {fill:white;fill-opacity:0.439216}
   ]]>
  </style>
 </defs>
 <g id="Camada_x0020_1">
  <metadata id="CorelCorpID_0Corel-Layer"/>
  <g id="_905443208">
   <rect class="fil0" width="160" height="160"/>
   <rect class="fil1" x="13" y="13" width="133" height="133" rx="17" ry="17"/>
   <g>
    <g>
     <path class="fil2" d="M55 66l13 11 13 10 -3 17 -3 16 -15 6 -16 6 -13 -11 -13 -10 3 -17 3 -16 15 -6 16 -6zm-13 29l0 0 0 0 1 0c0,0 0,0 0,0l0 0 0 0 0 0 0 0 0 0 0 0 0 0 0 0 0 0 0 0 0 0 0 0 0 0 0 0c0,0 0,0 0,0l0 0c0,0 0,0 0,0l0 0 0 0 0 0 0 1 0 0 0 0c3,4 -5,22 -8,21 -1,0 -2,-2 -2,-4 -2,2 -4,3 -5,3 -4,-3 7,-25 14,-21 0,0 0,0 0,0l0 0 0 0 0 0 0 0 0 0 0 0 0 0 0 0zm6 -4l0 0 0 0 0 0 0 0 0 0c0,0 0,0 0,0l0 0 0 0 0 0 0 0 0 0 0 0 0 0 0 0zm1 0l0 0 0 0 0 0 0 1 0 0 0 0 0 0 0 0 0 0 0 0 0 0 0 0 0 0c3,4 22,3 23,-1 0,-1 -2,-2 -4,-3 3,-1 5,-3 5,-4 -1,-4 -26,-1 -25,6 0,1 0,1 0,1l0 0 0 0 0 0 0 0 0 0 0 0 0 0 0 0 1 0zm0 1l0 0 0 0 0 0 0 0zm7 4c-2,5 -6,8 -11,8 1,-3 1,-6 -1,-10 1,0 2,-1 3,-2 3,3 6,4 9,4zm1 1c-2,6 -6,9 -12,9 4,7 11,12 16,9 5,-3 1,-11 -4,-18zm-6 9c0,1 -1,1 -2,1 3,5 7,9 11,6 -3,1 -6,-2 -9,-7l0 0zm-10 -19c1,0 1,0 1,0 -1,-2 -1,-4 0,-6 1,-3 4,-1 2,-1 -2,0 -3,3 -2,7 2,-1 3,0 4,1 1,1 0,3 -1,4 -2,1 -4,1 -5,0 -1,-2 0,-3 1,-4 -4,-3 -7,-2 -7,-1 -1,2 -2,-1 1,-1 2,0 4,0 6,2 0,0 0,-1 0,-1z"/>
    </g>
    <g>
     <path class="fil3" d="M95 18l13 10 12 11 -2 17 -3 16 -16 6 -15 6 -13 -11 -13 -11 3 -16 2 -17 16 -5 16 -6zm-13 29l0 0 0 0 0 0c0,0 0,0 0,0l0 0 0 0 0 0 0 0 0 0 0 0 0 0 0 0 0 0 0 0 0 0 0 0 0 0 0 0c0,0 0,0 0,0l0 0c0,0 1,0 1,0l0 0 0 0 0 0 0 0 0 0 0 0c3,5 -5,23 -8,22 -2,0 -2,-2 -2,-5 -3,3 -5,4 -6,3 -3,-2 8,-24 15,-20 0,0 0,0 0,0l0 0 0 0 0 0 0 0 0 0 0 0 0 0 0 0zm6 -4l0 0 0 0 0 0 0 0 0 0c0,0 0,0 0,0l0 0 0 0 0 0 0 0 0 0 0 0 0 0 0 0zm0 0l0 0 0 0 0 0 0 0 0 0 0 0 0 0 0 0 0 0 0 0 0 0 0 0 0 0c3,5 23,4 23,0 1,-1 -1,-2 -3,-3 3,-1 5,-3 4,-4 0,-4 -25,-2 -24,6 0,0 0,1 0,1l0 0 0 0 0 0 0 0 0 0 0 0 0 0 0 0 0 0zm0 0l0 0 0 0 0 0 0 0zm7 5c-2,5 -5,7 -11,8 1,-3 1,-6 0,-10 1,0 2,-1 3,-2 2,3 5,4 8,4zm2 1c-2,6 -6,8 -12,9 4,7 10,12 15,9 5,-4 2,-11 -3,-18zm-6 9c-1,0 -2,1 -3,1 3,5 8,9 11,6 -3,1 -6,-2 -8,-7l0 0zm-10 -19c0,0 0,0 1,0 -1,-2 -1,-4 0,-7 1,-2 3,0 2,0 -2,0 -3,2 -2,7 1,-1 3,-1 4,0 0,2 0,4 -2,5 -1,1 -3,1 -4,-1 -1,-1 -1,-2 1,-3 -4,-3 -7,-3 -8,-1 0,1 -2,-1 2,-2 2,0 4,1 6,2 0,0 0,0 0,0z"/>
    </g>
    <g>
     <path class="fil4" d="M116 76l13 11 13 11 -3 16 -3 17 -15 5 -16 6 -13 -10 -13 -11 3 -17 3 -16 15 -6 16 -6zm-12 29l0 0 0 0 0 0c0,1 0,1 0,1l0 0 0 0 0 0 0 0 0 0 0 0 0 0 0 0 0 0 0 0 0 0 0 0 0 0 0 0c0,0 0,0 0,0l0 0c0,0 0,0 0,0l0 0 0 0 0 0 0 0 0 0 0 0c3,4 -5,22 -8,22 -1,-1 -2,-2 -2,-5 -2,2 -4,4 -5,3 -4,-2 7,-24 14,-21 0,0 0,0 0,0l0 0 0 0 1 0 0 0 0 0 0 0 0 0 0 0zm5 -4l0 0 0 0 0 0 0 0 0 0c0,0 0,1 0,1l0 0 0 0 0 0 0 0 0 0 0 0 0 0 0 -1zm1 1l0 0 0 0 0 0 0 0 0 0 0 0 0 0 0 0 0 0 0 0 0 0 0 0 0 0c3,4 23,3 23,0 0,-1 -2,-2 -4,-3 3,-2 5,-3 5,-5 -1,-4 -26,-1 -25,7 0,0 0,0 0,0l0 0 0 0 0 0 0 0 0 0 0 0 0 0 0 0 1 1zm0 0l0 0 0 0 0 0 0 0zm7 5c-2,5 -6,7 -11,7 1,-3 1,-6 -1,-9 1,-1 2,-1 3,-2 3,2 6,3 9,4zm1 1c-2,5 -6,8 -12,8 4,8 11,13 16,9 5,-3 2,-11 -4,-17zm-5 9c-1,0 -2,0 -3,0 3,6 7,9 11,7 -3,1 -6,-2 -8,-7l0 0zm-10 -19c0,0 0,-1 0,-1 -1,-2 -1,-4 0,-6 1,-3 4,-1 2,-1 -2,0 -3,3 -2,7 2,0 3,0 4,1 1,1 0,3 -1,4 -2,1 -4,1 -5,0 -1,-1 0,-3 1,-4 -4,-2 -7,-2 -7,0 -1,1 -2,-2 1,-2 2,0 4,1 6,2 0,0 0,0 1,0z"/>
    </g>
   </g>
   <path class="fil5" d="M53 43l6 13c5,-1 10,-6 20,-6 11,0 13,7 10,13 -6,10 -21,9 -20,31l15 0c1,-10 1,-10 10,-16 5,-4 11,-8 12,-15 2,-5 1,-11 -1,-15 -6,-13 -25,-14 -39,-10 -3,0 -5,1 -7,2 -2,1 -4,2 -6,3z"/>
   <path class="fil5" d="M74 105c-12,2 -9,22 6,19 11,-2 10,-22 -6,-19z"/>
  </g>
 </g>
</svg>
