<?xml version="1.0" encoding="UTF-8"?>
<!DOCTYPE svg PUBLIC "-//W3C//DTD SVG 1.1//EN" "http://www.w3.org/Graphics/SVG/1.1/DTD/svg11.dtd">
<!-- Creator: CorelDRAW X7 -->
<?xml-stylesheet href="logo.css" type="text/css"?>
<svg xmlns="http://www.w3.org/2000/svg" xml:space="preserve" width="160px" height="160px" version="1.1" style="shape-rendering:geometricPrecision; text-rendering:geometricPrecision; image-rendering:optimizeQuality; fill-rule:evenodd; clip-rule:evenodd"
viewBox="0 0 160 160"
 xmlns:xlink="http://www.w3.org/1999/xlink">
 <g id="Camada_x0020_1">
  <metadata id="CorelCorpID_0Corel-Layer"/>
  <g id="_311720712">
   <rect class="fil0" width="160" height="160"/>
   <polygon class="fil1" points="94,0 125,26 156,52 149,92 143,132 104,146 66,160 35,134 4,108 11,68 17,28 56,14 "/>
   <path class="fil2" d="M136 43c-2,-10 -62,-4 -60,16 2,16 62,-6 60,-16z"/>
   <path class="fil2" d="M134 61c0,-2 -4,-5 -10,-7l0 -1 0 0 -1 0 0 0 -1 0 0 0 -1 -1 0 0 0 0 -1 0 -1 0 0 0 0 0 -1 -1 -1 0 0 0 -1 0 0 0 -1 0 -1 0 0 -1 -1 0 0 0 -1 0 0 0 0 0 -1 0 -1 0 0 0 -1 -1 -1 0 0 0 0 0 -1 0 0 0 -1 0 0 0 -1 0 0 0 -1 0 0 0 -1 0 0 0 -1 0 -1 0 0 0 -1 -1 0 0 0 0 -1 0 0 0 -1 0 0 0 0 0 -1 0 0 0 -1 0 -1 0 0 0 -1 0 0 0 -1 0 0 0 -1 1 -1 0c0,0 -1,0 -2,0l0 0 -1 0 0 0c0,0 -1,0 -1,0l0 0c0,0 -1,0 -1,0l0 1c0,0 -1,0 -1,0l0 0c0,0 -1,0 -1,0l0 0c0,0 0,0 -1,0l0 0c0,1 0,1 -1,1l0 0 0 0c0,0 0,0 0,0l-1 0c0,0 0,0 0,1l0 0c-1,0 -1,0 -1,0l0 0c0,0 0,0 -1,1l0 0c0,0 0,0 0,0l0 0c-1,0 -1,1 -1,1l0 0c0,0 0,0 0,0l0 1c-1,0 -1,0 -1,0l0 0c0,0 0,1 0,1l0 0c0,0 0,0 0,0l0 1c-1,0 -1,0 -1,0 0,1 0,1 0,1l0 0 0 0 0 0c0,0 0,1 0,1l0 0 0 0c0,0 0,0 0,0l0 0c0,1 0,1 0,1l0 0 0 0 0 0 0 0c0,0 1,0 1,0l0 0 0 0 0 0 0 0 0 0 0 1 0 0 0 0 0 0 0 0 0 0 0 0 0 0 0 0 0 0 0 0 0 0 0 0 0 0 0 0 0 0 0 0 0 0 0 0 0 0 0 0 0 0 0 0 0 0 0 0c8,11 56,8 57,0z"/>
   <path class="fil3" d="M94 73c-4,12 -13,18 -26,18 2,-7 2,-14 -2,-23 3,-1 5,-2 7,-5 7,6 14,9 21,10z"/>
   <path class="fil4" d="M99 75c-6,14 -16,20 -30,21 10,18 26,31 38,22 11,-8 4,-27 -8,-43zm-15 22c-2,1 -4,2 -6,2 7,13 18,21 26,16 -7,1 -14,-6 -20,-18l0 0z"/>
   <path class="fil3" d="M60 51c0,0 1,-1 1,-1 -1,-5 -2,-10 0,-15 3,-7 9,-2 5,-2 -4,0 -7,7 -5,17 4,-1 8,-1 10,2 2,3 0,7 -4,10 -3,3 -8,2 -10,-1 -2,-2 -1,-6 1,-9 -9,-6 -16,-5 -17,-1 -1,3 -5,-3 3,-4 6,0 11,2 15,5 0,0 0,-1 1,-1z"/>
   <path class="fil2" d="M26 120c-9,-6 18,-59 35,-51 15,7 -27,56 -35,51z"/>
   <path class="fil5" d="M44 124c-3,-1 -4,-5 -4,-11l0 -1 0 0 0 0 0 -1 0 0 0 -1 0 0 0 0 0 -1 0 -1 0 0 0 -1 0 0 0 -1 0 -1 0 0 0 -1 0 -1 0 -1 0 0 0 0 1 -1 0 0 0 -1 0 0 0 0 0 -1 0 -1 0 -1 0 0 0 -1 0 0 0 0 1 -1 0 0 0 -1 0 0 0 -1 0 0 0 -1 0 0 1 -1 0 0 0 -1 0 -1 0 0 0 -1 0 0 0 0 1 -1 0 0 0 -1 0 0 0 0 0 -1 0 0 1 -1 0 0 0 -1 0 0 1 -1 0 -1 0 0 0 -1 0 0c1,-1 1,-1 1,-2l1 0 0 -1 0 0c0,0 0,-1 1,-1l0 0c0,0 0,0 0,-1l0 0c0,0 1,0 1,0l0 -1c0,0 0,0 0,0l0 0c1,-1 1,-1 1,-1l0 0c0,0 0,-1 1,-1l0 0 0 0c0,0 0,0 0,0l0 -1c1,0 1,0 1,0l0 0c0,0 0,0 1,-1l0 0c0,0 0,0 0,0l1 0c0,0 0,0 0,0l0 0c0,0 1,-1 1,-1l0 0c0,0 0,0 1,0l0 0c0,0 0,0 0,0l0 0c1,0 1,0 1,0l0 0c1,0 1,0 1,0l0 0c0,0 1,0 1,0 0,0 0,0 1,0l0 0 0 0 0 0c0,0 0,0 0,0l0 0 0 0c0,0 1,0 1,0l0 1c0,0 0,0 0,0l0 0 0 0 0 0 0 0c0,0 1,0 1,0l0 0 0 0 0 0 0 0 0 0 0 0 0 0 0 0 0 0 0 0 0 1 0 0 0 0 0 0 0 0 0 0 0 0 0 0 0 0 0 0 0 0 0 0 0 0 0 0 0 0 0 0 0 0 0 0 0 0 0 0c8,11 -11,55 -19,53z"/>
  </g>
 </g>
</svg>
